<?xml version="1.0" encoding="UTF-8" standalone="no"?>
<!DOCTYPE svg PUBLIC "-//W3C//DTD SVG 1.1//EN"
 "http://www.w3.org/Graphics/SVG/1.1/DTD/svg11.dtd">
<!-- Generated by graphviz version 2.38.0 (20140413.2041)
 -->
<!-- Title: %3 Pages: 1 -->
<svg width="1230pt" height="492pt"
 viewBox="0.00 0.00 1230.00 492.00" xmlns="http://www.w3.org/2000/svg" xmlns:xlink="http://www.w3.org/1999/xlink">
<g id="graph0" class="graph" transform="scale(1 1) rotate(0) translate(4 488)">
<title>%3</title>
<polygon fill="white" stroke="none" points="-4,4 -4,-488 1226,-488 1226,4 -4,4"/>
<g id="clust1" class="cluster"><title>cluster_TodoList</title>
<polygon fill="none" stroke="black" points="338,-152 338,-258.5 456,-258.5 456,-152 338,-152"/>
</g>
<g id="clust2" class="cluster"><title>cluster_AddTodo</title>
<polygon fill="none" stroke="black" points="8,-8 8,-258.5 172,-258.5 172,-8 8,-8"/>
</g>
<g id="clust3" class="cluster"><title>cluster_MarkTodoDone</title>
<polygon fill="none" stroke="black" points="180,-152 180,-258.5 330,-258.5 330,-152 180,-152"/>
</g>
<g id="clust4" class="cluster"><title>cluster_DescriptionField</title>
<polygon fill="none" stroke="black" points="464,-80 464,-258.5 682,-258.5 682,-80 464,-80"/>
</g>
<g id="clust5" class="cluster"><title>cluster_Search</title>
<polygon fill="none" stroke="black" points="690,-80 690,-258.5 1014,-258.5 1014,-80 690,-80"/>
</g>
<g id="clust6" class="cluster"><title>cluster_Filter</title>
<polygon fill="none" stroke="black" points="1022,-80 1022,-330.5 1214,-330.5 1214,-80 1022,-80"/>
</g>
<!-- TodoList -->
<g id="node1" class="node"><title>TodoList</title>
<polygon fill="white" stroke="green" points="434,-340 368,-340 368,-304 434,-304 434,-340"/>
<text text-anchor="middle" x="401" y="-318.3" font-family="Times,serif" font-size="14.00">TodoList</text>
</g>
<!-- cluster_aa76db76d4557e0ff7e90254b2b1fd6c55a35130beb3ab9dc0eed76f9aea07bd -->
<!-- TodoList&#45;&gt;cluster_aa76db76d4557e0ff7e90254b2b1fd6c55a35130beb3ab9dc0eed76f9aea07bd -->
<g id="edge1" class="edge"><title>TodoList&#45;&gt;cluster_aa76db76d4557e0ff7e90254b2b1fd6c55a35130beb3ab9dc0eed76f9aea07bd</title>
<path fill="none" stroke="black" d="M401,-303.697C401,-290.361 401,-272.375 401,-261.241"/>
<polygon fill="black" stroke="black" points="404.5,-261.092 401,-251.092 397.5,-261.092 404.5,-261.092"/>
</g>
<!-- 5aef5eb26c28650c5c94078f21d5cbc0da2877644a7dcee42b9e06b7f74175de -->
<g id="node3" class="node"><title>5aef5eb26c28650c5c94078f21d5cbc0da2877644a7dcee42b9e06b7f74175de</title>
<polygon fill="none" stroke="#00cc00" points="447.5,-196 346.5,-196 346.5,-160 447.5,-160 447.5,-196"/>
<text text-anchor="middle" x="397" y="-174.3" font-family="Times,serif" font-size="14.00">S: List of todos</text>
</g>
<!-- cluster_aa76db76d4557e0ff7e90254b2b1fd6c55a35130beb3ab9dc0eed76f9aea07bd&#45;&gt;5aef5eb26c28650c5c94078f21d5cbc0da2877644a7dcee42b9e06b7f74175de -->
<!-- TodoManagement -->
<g id="node4" class="node"><title>TodoManagement</title>
<polygon fill="#cccccc" stroke="green" points="428.5,-412 311.5,-412 311.5,-376 428.5,-376 428.5,-412"/>
<text text-anchor="middle" x="370" y="-390.3" font-family="Times,serif" font-size="14.00">TodoManagement</text>
</g>
<!-- TodoManagement&#45;&gt;TodoList -->
<g id="edge3" class="edge"><title>TodoManagement&#45;&gt;TodoList</title>
<path fill="none" stroke="black" d="M377.663,-375.697C381.417,-367.22 386.003,-356.864 390.113,-347.583"/>
<ellipse fill="black" stroke="black" cx="391.805" cy="-343.762" rx="4.00002" ry="4.00002"/>
</g>
<!-- AddTodo -->
<g id="node5" class="node"><title>AddTodo</title>
<polygon fill="white" stroke="green" points="207,-340 139,-340 139,-304 207,-304 207,-340"/>
<text text-anchor="middle" x="173" y="-318.3" font-family="Times,serif" font-size="14.00">AddTodo</text>
</g>
<!-- TodoManagement&#45;&gt;AddTodo -->
<g id="edge8" class="edge"><title>TodoManagement&#45;&gt;AddTodo</title>
<path fill="none" stroke="black" d="M322.06,-375.966C289.302,-364.326 246.308,-349.049 214.916,-337.894"/>
<ellipse fill="black" stroke="black" cx="210.968" cy="-336.491" rx="4.00001" ry="4.00001"/>
</g>
<!-- MarkTodoDone -->
<g id="node10" class="node"><title>MarkTodoDone</title>
<polygon fill="white" stroke="green" points="350,-340 246,-340 246,-304 350,-304 350,-340"/>
<text text-anchor="middle" x="298" y="-318.3" font-family="Times,serif" font-size="14.00">MarkTodoDone</text>
</g>
<!-- TodoManagement&#45;&gt;MarkTodoDone -->
<g id="edge11" class="edge"><title>TodoManagement&#45;&gt;MarkTodoDone</title>
<path fill="none" stroke="black" d="M352.202,-375.697C342.96,-366.711 331.546,-355.614 321.579,-345.924"/>
<ellipse fill="black" stroke="black" cx="318.461" cy="-342.893" rx="4.00002" ry="4.00002"/>
</g>
<!-- cluster_cb1c899039f42ef9b8a2a92e8b7e8b0ce5bd041f9f7e268baaaef4bad3db4a40 -->
<!-- AddTodo&#45;&gt;cluster_cb1c899039f42ef9b8a2a92e8b7e8b0ce5bd041f9f7e268baaaef4bad3db4a40 -->
<g id="edge4" class="edge"><title>AddTodo&#45;&gt;cluster_cb1c899039f42ef9b8a2a92e8b7e8b0ce5bd041f9f7e268baaaef4bad3db4a40</title>
<path fill="none" stroke="black" d="M170.528,-303.697C168.623,-290.361 166.054,-272.375 164.463,-261.241"/>
<polygon fill="black" stroke="black" points="167.892,-260.497 163.013,-251.092 160.963,-261.487 167.892,-260.497"/>
</g>
<!-- 620c083f7a52cd315c8d2898c3454a77ed5d93409f841f599c14e40c9028019b -->
<g id="node7" class="node"><title>620c083f7a52cd315c8d2898c3454a77ed5d93409f841f599c14e40c9028019b</title>
<polygon fill="none" stroke="#00cc00" points="156,-196 18,-196 18,-160 156,-160 156,-196"/>
<text text-anchor="middle" x="87" y="-174.3" font-family="Times,serif" font-size="14.00">S: Add one&#45;word todo</text>
</g>
<!-- cluster_cb1c899039f42ef9b8a2a92e8b7e8b0ce5bd041f9f7e268baaaef4bad3db4a40&#45;&gt;620c083f7a52cd315c8d2898c3454a77ed5d93409f841f599c14e40c9028019b -->
<!-- 933135aa7ffab8b5a58210f7e72988352f4530cbc70c112d6e8bda743bd674ec -->
<g id="node8" class="node"><title>933135aa7ffab8b5a58210f7e72988352f4530cbc70c112d6e8bda743bd674ec</title>
<polygon fill="none" stroke="#00cc00" points="164,-124 16,-124 16,-88 164,-88 164,-124"/>
<text text-anchor="middle" x="90" y="-102.3" font-family="Times,serif" font-size="14.00">S: Add multi&#45;word todo</text>
</g>
<!-- 620c083f7a52cd315c8d2898c3454a77ed5d93409f841f599c14e40c9028019b&#45;&gt;933135aa7ffab8b5a58210f7e72988352f4530cbc70c112d6e8bda743bd674ec -->
<!-- 50e6b43bd43948f8b829ba64ac0e95704b1be32ea3aa14157cb5bc53caa32c82 -->
<g id="node9" class="node"><title>50e6b43bd43948f8b829ba64ac0e95704b1be32ea3aa14157cb5bc53caa32c82</title>
<polygon fill="none" stroke="#00cc00" points="143.5,-52 22.5,-52 22.5,-16 143.5,-16 143.5,-52"/>
<text text-anchor="middle" x="83" y="-30.3" font-family="Times,serif" font-size="14.00">S: Add empty todo</text>
</g>
<!-- 933135aa7ffab8b5a58210f7e72988352f4530cbc70c112d6e8bda743bd674ec&#45;&gt;50e6b43bd43948f8b829ba64ac0e95704b1be32ea3aa14157cb5bc53caa32c82 -->
<!-- cluster_f7ee53048eeb669d5bc79f3a6a33278e2d68851d893c3c5a6662634dd40c094a -->
<!-- MarkTodoDone&#45;&gt;cluster_f7ee53048eeb669d5bc79f3a6a33278e2d68851d893c3c5a6662634dd40c094a -->
<g id="edge9" class="edge"><title>MarkTodoDone&#45;&gt;cluster_f7ee53048eeb669d5bc79f3a6a33278e2d68851d893c3c5a6662634dd40c094a</title>
<path fill="none" stroke="black" d="M298,-303.697C298,-290.361 298,-272.375 298,-261.241"/>
<polygon fill="black" stroke="black" points="301.5,-261.092 298,-251.092 294.5,-261.092 301.5,-261.092"/>
</g>
<!-- ee23df311d75aa53d551430b41d7104731d5c5e0cae0fd27a665d71a51ac9114 -->
<g id="node12" class="node"><title>ee23df311d75aa53d551430b41d7104731d5c5e0cae0fd27a665d71a51ac9114</title>
<polygon fill="none" stroke="#00cc00" points="322,-196 188,-196 188,-160 322,-160 322,-196"/>
<text text-anchor="middle" x="255" y="-174.3" font-family="Times,serif" font-size="14.00">S: Mark todo as done</text>
</g>
<!-- cluster_f7ee53048eeb669d5bc79f3a6a33278e2d68851d893c3c5a6662634dd40c094a&#45;&gt;ee23df311d75aa53d551430b41d7104731d5c5e0cae0fd27a665d71a51ac9114 -->
<!-- todoapp -->
<g id="node13" class="node"><title>todoapp</title>
<polygon fill="#ffcccc" stroke="red" points="558,-484 498,-484 498,-448 558,-448 558,-484"/>
<text text-anchor="middle" x="528" y="-462.3" font-family="Times,serif" font-size="14.00">todoapp</text>
</g>
<!-- todoapp&#45;&gt;TodoManagement -->
<g id="edge12" class="edge"><title>todoapp&#45;&gt;TodoManagement</title>
<path fill="none" stroke="black" d="M497.91,-451.669C474.766,-441.415 442.389,-427.071 416.001,-415.38"/>
<ellipse fill="black" stroke="black" cx="412.034" cy="-413.623" rx="4.00002" ry="4.00002"/>
</g>
<!-- TodoFields -->
<g id="node15" class="node"><title>TodoFields</title>
<polygon fill="#cccccc" stroke="green" points="567,-412 489,-412 489,-376 567,-376 567,-412"/>
<text text-anchor="middle" x="528" y="-390.3" font-family="Times,serif" font-size="14.00">TodoFields</text>
</g>
<!-- todoapp&#45;&gt;TodoFields -->
<g id="edge18" class="edge"><title>todoapp&#45;&gt;TodoFields</title>
<path fill="none" stroke="black" d="M528,-447.697C528,-439.389 528,-429.277 528,-420.141"/>
<ellipse fill="black" stroke="black" cx="528" cy="-416.104" rx="4" ry="4"/>
</g>
<!-- Filter -->
<g id="node24" class="node"><title>Filter</title>
<polygon fill="#ffeeee" stroke="red" points="737,-412 683,-412 683,-376 737,-376 737,-412"/>
<text text-anchor="middle" x="710" y="-390.3" font-family="Times,serif" font-size="14.00">Filter</text>
</g>
<!-- todoapp&#45;&gt;Filter -->
<g id="edge27" class="edge"><title>todoapp&#45;&gt;Filter</title>
<path fill="none" stroke="black" d="M558.054,-453.441C590.207,-441.074 641.149,-421.481 675.065,-408.436"/>
<ellipse fill="none" stroke="black" cx="679.142" cy="-406.868" rx="4.00001" ry="4.00001"/>
</g>
<!-- LabelField -->
<g id="node14" class="node"><title>LabelField</title>
<polygon fill="white" stroke="green" points="535.5,-340 460.5,-340 460.5,-304 535.5,-304 535.5,-340"/>
<text text-anchor="middle" x="498" y="-318.3" font-family="Times,serif" font-size="14.00">LabelField</text>
</g>
<!-- TodoFields&#45;&gt;LabelField -->
<g id="edge13" class="edge"><title>TodoFields&#45;&gt;LabelField</title>
<path fill="none" stroke="black" d="M520.584,-375.697C516.951,-367.22 512.513,-356.864 508.535,-347.583"/>
<ellipse fill="black" stroke="black" cx="506.906" cy="-343.781" rx="4.00002" ry="4.00002"/>
</g>
<!-- DescriptionField -->
<g id="node16" class="node"><title>DescriptionField</title>
<polygon fill="white" stroke="green" points="660.5,-340 553.5,-340 553.5,-304 660.5,-304 660.5,-340"/>
<text text-anchor="middle" x="607" y="-318.3" font-family="Times,serif" font-size="14.00">DescriptionField</text>
</g>
<!-- TodoFields&#45;&gt;DescriptionField -->
<g id="edge17" class="edge"><title>TodoFields&#45;&gt;DescriptionField</title>
<path fill="none" stroke="black" d="M547.528,-375.697C557.764,-366.626 570.429,-355.404 581.437,-345.65"/>
<ellipse fill="none" stroke="black" cx="584.703" cy="-342.757" rx="4.00002" ry="4.00002"/>
</g>
<!-- cluster_e7f4fa8ba09627a014ed71ab93f3f0036cc0aec1597b2b703f4ebb730e97b6b3 -->
<!-- DescriptionField&#45;&gt;cluster_e7f4fa8ba09627a014ed71ab93f3f0036cc0aec1597b2b703f4ebb730e97b6b3 -->
<g id="edge14" class="edge"><title>DescriptionField&#45;&gt;cluster_e7f4fa8ba09627a014ed71ab93f3f0036cc0aec1597b2b703f4ebb730e97b6b3</title>
<path fill="none" stroke="black" d="M607,-303.697C607,-290.361 607,-272.375 607,-261.241"/>
<polygon fill="black" stroke="black" points="610.5,-261.092 607,-251.092 603.5,-261.092 610.5,-261.092"/>
</g>
<!-- d7b26dfadaac7ae4bfcf55e565691c9a4860d515a5c5797d3f2d89da5845e7e1 -->
<g id="node18" class="node"><title>d7b26dfadaac7ae4bfcf55e565691c9a4860d515a5c5797d3f2d89da5845e7e1</title>
<polygon fill="none" stroke="#00cc00" points="666,-196 474,-196 474,-160 666,-160 666,-196"/>
<text text-anchor="middle" x="570" y="-174.3" font-family="Times,serif" font-size="14.00">S: List of todos with description</text>
</g>
<!-- cluster_e7f4fa8ba09627a014ed71ab93f3f0036cc0aec1597b2b703f4ebb730e97b6b3&#45;&gt;d7b26dfadaac7ae4bfcf55e565691c9a4860d515a5c5797d3f2d89da5845e7e1 -->
<!-- 60483ec71d140c6aeca8ab1915e3ab5d57e2c2e4ea8e60eeeee50ed8d474d469 -->
<g id="node19" class="node"><title>60483ec71d140c6aeca8ab1915e3ab5d57e2c2e4ea8e60eeeee50ed8d474d469</title>
<polygon fill="none" stroke="#00cc00" points="674.5,-124 471.5,-124 471.5,-88 674.5,-88 674.5,-124"/>
<text text-anchor="middle" x="573" y="-102.3" font-family="Times,serif" font-size="14.00">S: Add todo with description field</text>
</g>
<!-- d7b26dfadaac7ae4bfcf55e565691c9a4860d515a5c5797d3f2d89da5845e7e1&#45;&gt;60483ec71d140c6aeca8ab1915e3ab5d57e2c2e4ea8e60eeeee50ed8d474d469 -->
<!-- Search -->
<g id="node20" class="node"><title>Search</title>
<polygon fill="#ffeeee" stroke="red" points="737,-340 683,-340 683,-304 737,-304 737,-340"/>
<text text-anchor="middle" x="710" y="-318.3" font-family="Times,serif" font-size="14.00">Search</text>
</g>
<!-- cluster_49c266baaaa70981ea188fa714d5c40cf13830d786a861c9943ae0d26a7f3fe9 -->
<!-- Search&#45;&gt;cluster_49c266baaaa70981ea188fa714d5c40cf13830d786a861c9943ae0d26a7f3fe9 -->
<g id="edge19" class="edge"><title>Search&#45;&gt;cluster_49c266baaaa70981ea188fa714d5c40cf13830d786a861c9943ae0d26a7f3fe9</title>
<path fill="none" stroke="black" d="M710,-303.697C710,-290.361 710,-272.375 710,-261.241"/>
<polygon fill="black" stroke="black" points="713.5,-261.092 710,-251.092 706.5,-261.092 713.5,-261.092"/>
</g>
<!-- aa14ce3f53c56da9de88a81af6499da34a0b4bba45e0785a36d00024172827b6 -->
<g id="node22" class="node"><title>aa14ce3f53c56da9de88a81af6499da34a0b4bba45e0785a36d00024172827b6</title>
<polygon fill="none" stroke="#ff0000" points="982.5,-196 705.5,-196 705.5,-160 982.5,-160 982.5,-196"/>
<text text-anchor="middle" x="844" y="-174.3" font-family="Times,serif" font-size="14.00">S: Search list for text that is present in one todo</text>
</g>
<!-- cluster_49c266baaaa70981ea188fa714d5c40cf13830d786a861c9943ae0d26a7f3fe9&#45;&gt;aa14ce3f53c56da9de88a81af6499da34a0b4bba45e0785a36d00024172827b6 -->
<!-- 9380f0cdc52b2f715dbad87327c6412da69ce5a2820624fc0d0e78add226a69e -->
<g id="node23" class="node"><title>9380f0cdc52b2f715dbad87327c6412da69ce5a2820624fc0d0e78add226a69e</title>
<polygon fill="none" stroke="#ff0000" points="1006,-124 698,-124 698,-88 1006,-88 1006,-124"/>
<text text-anchor="middle" x="852" y="-102.3" font-family="Times,serif" font-size="14.00">S: Search list for text that is present in multiple todos</text>
</g>
<!-- aa14ce3f53c56da9de88a81af6499da34a0b4bba45e0785a36d00024172827b6&#45;&gt;9380f0cdc52b2f715dbad87327c6412da69ce5a2820624fc0d0e78add226a69e -->
<!-- Filter&#45;&gt;Search -->
<g id="edge22" class="edge"><title>Filter&#45;&gt;Search</title>
<path fill="none" stroke="black" d="M710,-375.697C710,-367.389 710,-357.277 710,-348.141"/>
<ellipse fill="none" stroke="black" cx="710" cy="-344.104" rx="4" ry="4"/>
</g>
<!-- cluster_638e249f4a15ebb84957da130701d138a6e06d88dceeaa2e6dcd91db70cc1381 -->
<!-- Filter&#45;&gt;cluster_638e249f4a15ebb84957da130701d138a6e06d88dceeaa2e6dcd91db70cc1381 -->
<g id="edge23" class="edge"><title>Filter&#45;&gt;cluster_638e249f4a15ebb84957da130701d138a6e06d88dceeaa2e6dcd91db70cc1381</title>
<path fill="none" stroke="black" d="M737.092,-387.092C804.493,-372.394 977.43,-334.682 1020.95,-325.193"/>
<polygon fill="black" stroke="black" points="1021.82,-328.585 1030.84,-323.034 1020.33,-321.745 1021.82,-328.585"/>
</g>
<!-- 57ee0db7e0debeea824ad0247d6046b299157a31d53b24442a13a7f9c2453d98 -->
<g id="node26" class="node"><title>57ee0db7e0debeea824ad0247d6046b299157a31d53b24442a13a7f9c2453d98</title>
<polygon fill="none" stroke="#00cc00" points="1197,-268 1033,-268 1033,-232 1197,-232 1197,-268"/>
<text text-anchor="middle" x="1115" y="-246.3" font-family="Times,serif" font-size="14.00">S: Filter list for done todos</text>
</g>
<!-- cluster_638e249f4a15ebb84957da130701d138a6e06d88dceeaa2e6dcd91db70cc1381&#45;&gt;57ee0db7e0debeea824ad0247d6046b299157a31d53b24442a13a7f9c2453d98 -->
<!-- 1d4214cc78a7703e6048a86fb7d13ac5284eba9525686f04adbe4138bd0d0a2b -->
<g id="node27" class="node"><title>1d4214cc78a7703e6048a86fb7d13ac5284eba9525686f04adbe4138bd0d0a2b</title>
<polygon fill="none" stroke="#00cc00" points="1205.5,-196 1030.5,-196 1030.5,-160 1205.5,-160 1205.5,-196"/>
<text text-anchor="middle" x="1118" y="-174.3" font-family="Times,serif" font-size="14.00">S: Filter list for TODO todos</text>
</g>
<!-- 57ee0db7e0debeea824ad0247d6046b299157a31d53b24442a13a7f9c2453d98&#45;&gt;1d4214cc78a7703e6048a86fb7d13ac5284eba9525686f04adbe4138bd0d0a2b -->
<!-- 4fe1c9c9f27177bbeab9258a5ac83b6d13d9e504d617c3bb5c099b393e73c586 -->
<g id="node28" class="node"><title>4fe1c9c9f27177bbeab9258a5ac83b6d13d9e504d617c3bb5c099b393e73c586</title>
<polygon fill="none" stroke="#00cc00" points="1142.5,-124 1051.5,-124 1051.5,-88 1142.5,-88 1142.5,-124"/>
<text text-anchor="middle" x="1097" y="-102.3" font-family="Times,serif" font-size="14.00">S: Clear filter</text>
</g>
<!-- 1d4214cc78a7703e6048a86fb7d13ac5284eba9525686f04adbe4138bd0d0a2b&#45;&gt;4fe1c9c9f27177bbeab9258a5ac83b6d13d9e504d617c3bb5c099b393e73c586 -->
</g>
</svg>
